<svg id="Layer_1" data-name="Layer 1" xmlns="http://www.w3.org/2000/svg" xmlns:xlink="http://www.w3.org/1999/xlink" width="750" height="309.74" viewBox="0 0 750 309.74"><defs><style>.cls-1{fill:none;}.cls-2{fill:url(#linear-gradient);}.cls-3{clip-path:url(#clip-path);}.cls-4{fill:url(#radial-gradient);}.cls-5{fill:url(#radial-gradient-2);}.cls-6{fill:url(#radial-gradient-3);}</style><linearGradient id="linear-gradient" x1="327.67" y1="377.1" x2="750" y2="377.1" gradientTransform="matrix(1, 0, 0, -1, 0, 752.1)" gradientUnits="userSpaceOnUse"><stop offset="0" stop-color="#991eeb"/><stop offset="0.4" stop-color="#5822b4"/><stop offset="0.73" stop-color="#5822b4"/><stop offset="1" stop-color="#991eeb"/></linearGradient><clipPath id="clip-path" transform="translate(0 -233.05)"><path class="cls-1" d="M499.89,357.27c-.68-30.81-22.5-47.11-49.22-47.11-14.66,0-27.89,4.91-36.89,14.46-9-9.55-22.23-14.46-36.88-14.46-26.73,0-48.55,16.36-49.23,47.18v70.5a11.65,11.65,0,0,0,11.66,11.66h11a2,2,0,0,0,2-2v-80h0c.48-15.21,11.25-23.25,24.55-23.25s24.06,8,24.54,23.25h0v70.29a11.65,11.65,0,0,0,11.66,11.66h11a2,2,0,0,0,2-2v-80h0c.48-15.2,11.25-23.25,24.55-23.25s24.06,8,24.54,23.25h0V427.7a11.65,11.65,0,0,0,11.66,11.66h11a2,2,0,0,0,2-2v-80c.07.07,0,0,0-.07Zm248.65-45.13H729.79A15.71,15.71,0,0,0,716.84,319l-20.73,30.69a6.82,6.82,0,0,1-11.32,0L664.07,319a15.63,15.63,0,0,0-13-6.88H632.36a1.46,1.46,0,0,0-1.22,2.25l37,54.81a11.75,11.75,0,0,1,0,13.1l-37,54.81a1.44,1.44,0,0,0,1.22,2.25h18.75a15.71,15.71,0,0,0,13-6.88l20.72-30.69a6.82,6.82,0,0,1,11.32,0l20.73,30.69a15.61,15.61,0,0,0,12.95,6.88h18.75a1.47,1.47,0,0,0,1.23-2.25l-37-54.75a11.73,11.73,0,0,1,0-13.09l37-54.81A1.47,1.47,0,0,0,748.54,312.14Zm-125.86,0h-11a11.77,11.77,0,0,0-11.46,9.2C590.37,313.84,578,310,564.73,310c-32.32,0-58.57,22.5-58.57,65s26.19,65,58.57,65c13.23,0,25.43-3.75,35.25-11.12a11.71,11.71,0,0,0,11.66,10.64h11a2,2,0,0,0,2-2V314.12A2,2,0,0,0,622.68,312.14Zm-57.95,103.7c-19.29,0-35-14.11-35-40.77s15.69-40.77,35-40.77,35,14.11,35,40.77S584,415.84,564.73,415.84Z"/></clipPath><radialGradient id="radial-gradient" cx="-2673.38" cy="467.46" r="112.22" gradientTransform="matrix(0.67, 0, 0, -0.87, 2225.84, 527.02)" gradientUnits="userSpaceOnUse"><stop offset="0" stop-color="#7ba7f2" stop-opacity="0.5"/><stop offset="1" stop-color="#7ba7f2" stop-opacity="0"/></radialGradient><radialGradient id="radial-gradient-2" cx="504.46" cy="499.86" r="155.15" gradientTransform="matrix(1, 0, 0, -0.71, 0, 553.86)" gradientUnits="userSpaceOnUse"><stop offset="0.2" stop-color="#7ba7f2"/><stop offset="1" stop-color="#7ba7f2" stop-opacity="0"/></radialGradient><radialGradient id="radial-gradient-3" cx="599.71" cy="434.64" r="84.41" gradientTransform="matrix(1, 0, 0, -1, 0, 519.05)" gradientUnits="userSpaceOnUse"><stop offset="0" stop-color="#7ba7f2"/><stop offset="1" stop-color="#7ba7f2" stop-opacity="0"/></radialGradient></defs><title>hbo_max_logo</title><path id="path3441" d="M92.38,439.43H57.82V390.14H35.45v49.29H0V312.27H35.39v47.46H57.75V312.27H92.31V439.43Zm158.45.55c35.39,0,64.3-29.46,64.3-65.32a64,64,0,0,0-64.3-64.57c-35.86,0-54,26.05-58.36,36.68,0-15.75-15.75-34.56-34-34.56h-59V439.43h55c22.36,0,38.11-19.09,38.11-35.86,5,10.36,22.57,36.41,58.36,36.41ZM150,388.29c5.12,0,9.21,5,9.21,10.64,0,5.93-4.09,10.91-9.21,10.91H132.4V388.29Zm0-47.72c5.12,0,9.21,5,9.21,10.64s-4.09,10.63-9.21,10.63H132.4V340.57Zm23.25,34.09c4.09-.27,10.78-5,13.3-7.77-1,3.41-1,14.18,0,17.59-2.8-4.16-9.21-9.07-13.3-9.82Zm45.34,0a32.32,32.32,0,1,1,32.32,32.45,32.35,32.35,0,0,1-32.32-32.45Zm32.25,25.5a25.43,25.43,0,0,0,0-50.86,25.43,25.43,0,1,0,0,50.86Z" transform="translate(0 -233.05)"/><path id="_Compound_Path_" data-name="&lt;Compound Path&gt;" class="cls-2" d="M499.89,357.27c-.68-30.81-22.5-47.11-49.22-47.11-14.66,0-27.89,4.91-36.89,14.46-9-9.55-22.23-14.46-36.88-14.46-26.73,0-48.55,16.36-49.23,47.18v70.5a11.65,11.65,0,0,0,11.66,11.66h11a2,2,0,0,0,2-2v-80h0c.48-15.21,11.25-23.25,24.55-23.25s24.06,8,24.54,23.25h0v70.29a11.65,11.65,0,0,0,11.66,11.66h11a2,2,0,0,0,2-2v-80h0c.48-15.2,11.25-23.25,24.55-23.25s24.06,8,24.54,23.25h0V427.7a11.65,11.65,0,0,0,11.66,11.66h11a2,2,0,0,0,2-2v-80c.07.07,0,0,0-.07Zm248.65-45.13H729.79A15.71,15.71,0,0,0,716.84,319l-20.73,30.69a6.82,6.82,0,0,1-11.32,0L664.07,319a15.63,15.63,0,0,0-13-6.88H632.36a1.46,1.46,0,0,0-1.22,2.25l37,54.81a11.75,11.75,0,0,1,0,13.1l-37,54.81a1.44,1.44,0,0,0,1.22,2.25h18.75a15.71,15.71,0,0,0,13-6.88l20.72-30.69a6.82,6.82,0,0,1,11.32,0l20.73,30.69a15.61,15.61,0,0,0,12.95,6.88h18.75a1.47,1.47,0,0,0,1.23-2.25l-37-54.75a11.73,11.73,0,0,1,0-13.09l37-54.81a1.47,1.47,0,0,0-1.16-2.32Zm-125.86,0h-11a11.77,11.77,0,0,0-11.46,9.2C590.37,313.84,578,310,564.73,310c-32.32,0-58.57,22.5-58.57,65s26.19,65,58.57,65c13.23,0,25.43-3.75,35.25-11.12a11.71,11.71,0,0,0,11.66,10.64h11a2,2,0,0,0,2-2V314.12A2,2,0,0,0,622.68,312.14Zm-57.95,103.7c-19.29,0-35-14.11-35-40.77s15.69-40.77,35-40.77,35,14.11,35,40.77S584,415.84,564.73,415.84Z" transform="translate(0 -233.05)"/><g id="g3453"><g class="cls-3"><ellipse id="ellipse3466" class="cls-4" cx="429.33" cy="118.09" rx="75.41" ry="98.18"/></g><g class="cls-3"><ellipse id="ellipse3473" class="cls-5" cx="504.46" cy="199.9" rx="155.18" ry="109.84"/></g><g class="cls-3"><circle id="circle3480" class="cls-6" cx="599.71" cy="84.41" r="84.41"/></g></g></svg>